<?xml version="1.0" encoding="UTF-8"?>
<svg width="42px" height="40px" viewBox="0 0 42 40" version="1.1" xmlns="http://www.w3.org/2000/svg" xmlns:xlink="http://www.w3.org/1999/xlink">
    <title>Applause</title>
    <defs>
        <linearGradient x1="50%" y1="0%" x2="50%" y2="100%" id="linearGradient-1">
            <stop stop-color="#000000" stop-opacity="0.5" offset="0%"></stop>
            <stop stop-color="#000000" stop-opacity="0.5" offset="100%"></stop>
        </linearGradient>
        <path d="M17.5852661,16.0667418 C17.7310909,16.1553649 17.9175564,16.102772 18.0017484,15.9492722 C18.0859404,15.7957724 18.0359771,15.599493 17.8901523,15.5108698 L9.28408871,10.2806455 C8.9661197,10.0874039 8.85717548,9.65941928 9.04075497,9.32471507 L10.2052719,7.20155462 C10.3888514,6.8668504 10.7954367,6.75217227 11.1134057,6.94541384 L22.1230299,13.6363712 L22.1849633,13.6808484 L23.135708,14.2518133 L23.135708,14.2518133 L23.4425261,14.4275342 C24.2089332,14.849792 24.5680164,14.8930176 24.6847392,14.3560314 C24.7059509,14.2584465 24.6171208,14.1118309 24.4598652,13.9225042 L24.2813425,13.7191746 L24.2813425,13.7191746 L23.5645531,12.9523855 C23.5202633,12.9037208 23.4756141,12.8541039 23.4307982,12.8035638 L23.1614439,12.4894803 C23.0273079,12.327134 22.8951397,12.1570065 22.7701413,11.9798877 C22.0558334,10.9677359 21.5756622,9.72727762 22.3003984,8.40593023 C23.1187752,6.91385649 24.2907088,7.12454441 24.9249737,8.01155039 C25.0038423,8.12184644 25.0899839,8.25059942 25.1822385,8.39292616 L25.7998404,9.37070616 L25.7998404,9.37070616 L26.146256,9.9085122 C26.3239927,10.1782431 26.5076528,10.4455535 26.6933208,10.6939626 L26.9325139,11.006042 L26.9325139,11.006042 L27.323846,11.4937602 L27.323846,11.4937602 L28.492026,12.9097611 L28.492026,12.9097611 L28.7973298,13.290092 L28.7973298,13.290092 L29.1023745,13.6809918 L29.1023745,13.6809918 L29.4043788,14.0824788 L29.4043788,14.0824788 L29.7005612,14.4945713 C29.7980093,14.6337051 29.8940236,14.7746096 29.9881404,14.9172877 L30.2643352,15.3506462 C31.6122122,17.5440743 32.4288701,20.1372687 31.1498051,23.1405272 C30.5362552,24.5811489 29.7933814,26.0890597 28.9142092,27.4595299 C26.4332354,31.3269186 21.3526068,33.1795463 16.5441115,30.2572451 L4.98055387,23.2296419 C4.66258486,23.0364003 4.55364064,22.6084157 4.73722013,22.2737115 L5.90173702,20.150551 C6.08531651,19.8158468 6.4919019,19.7011687 6.80987091,19.8944103 L12.5313615,23.3715725 L13.3215929,23.8397312 C13.4689458,23.9270278 13.6555967,23.8732255 13.7401404,23.7190844 C13.8104185,23.5909526 13.7862337,23.4326983 13.690331,23.3336747 L3.96614489,17.4250098 C3.64817588,17.2317682 3.53923165,16.8037836 3.72281114,16.4690794 L4.88732804,14.3459189 C5.07090753,14.0112147 5.47749292,13.8965366 5.79546193,14.0897782 L15.4795962,19.9752353 L15.5125953,19.9898554 C15.645838,20.032193 15.7940288,19.9744117 15.8666277,19.8420486 C15.9513264,19.6876249 15.9010624,19.4901642 15.7543599,19.4010076 L5.0508107,12.8960634 C4.73284169,12.7028218 4.62389747,12.2748372 4.80747696,11.940133 L5.97199385,9.81697251 C6.15557334,9.4822683 6.56215873,9.36759016 6.88012774,9.56083173 L17.5852661,16.0667418 Z" id="path-2"></path>
        <linearGradient x1="50%" y1="43.108724%" x2="40.0379005%" y2="120.914855%" id="linearGradient-3">
            <stop stop-color="#FFD62F" offset="0%"></stop>
            <stop stop-color="#FB9D0B" offset="100%"></stop>
        </linearGradient>
    </defs>
    <g id="Symbols" stroke="none" stroke-width="1" fill="none" fill-rule="evenodd">
        <g id="Applause">
            <path d="M41.9967281,20.3482093 C41.8317061,38.6861031 35.5919902,40 21.0549704,40 C6.10303817,40 -0.235219408,38.3093203 0.00665563001,19.5026273 C0.239572334,1.39235296 6.35292857,0 20.7720756,0 C35.7042051,0 42.1669364,1.44029833 41.9967281,20.3482093 Z" id="Fill-203" fill="#182242"></path>
            <g id="Path">
                <use fill="#FE9A5F" xlink:href="#path-2"></use>
                <use fill-opacity="0.3" fill="url(#linearGradient-1)" xlink:href="#path-2"></use>
            </g>
            <path d="M22.347931,18.9170274 C22.4669964,19.0423595 22.6600397,19.0423595 22.7791051,18.9170274 C22.8981706,18.7916954 22.8981706,18.588492 22.7791051,18.4631599 L15.7522836,11.0665057 C15.492663,10.7932208 15.492663,10.3501385 15.7522836,10.0768537 L17.3991592,8.34330045 C17.6587798,8.0700156 18.079708,8.0700156 18.3393286,8.34330045 L27.3286491,17.8057431 L27.3775361,17.865578 L28.1554973,18.6761096 L28.1554973,18.6761096 C28.9596396,19.5014193 29.3507455,19.7465462 29.6261216,19.1987964 C29.6780183,19.0955687 29.6016485,18.8870728 29.4583781,18.6010064 L29.3206223,18.3374559 L29.3206223,18.3374559 L28.9811583,17.7118779 L28.9811583,17.7118779 L28.7966254,17.3576027 C28.6423147,17.0524645 28.489653,16.7238998 28.3610037,16.3820026 C27.9199011,15.2097322 27.7610929,13.8807232 28.7860248,12.8018475 C29.9433842,11.5835744 31.0235817,12.1063662 31.4181391,13.135948 C31.4672009,13.2639729 31.5187499,13.4118072 31.5728659,13.5744183 L32.0281218,14.9924247 C32.1630266,15.4025026 32.3090007,15.8213586 32.4666849,16.2087297 L32.6181022,16.5686613 L32.6181022,16.5686613 L32.7836906,16.9430252 L32.7836906,16.9430252 L33.6358477,18.7874625 L33.6358477,18.7874625 L33.932043,19.4530223 L33.932043,19.4530223 L34.1254438,19.9087804 L34.1254438,19.9087804 L34.3126198,20.3733617 C35.4119032,23.185917 36.0373832,26.4370668 33.7109806,29.4453174 C32.7641196,30.6696949 31.6757964,31.9238355 30.4896126,33.0080855 C27.1422698,36.0677768 21.7792389,36.4731057 17.8531189,32.3403478 L8.41151364,22.401816 C8.15189303,22.1285311 8.15189303,21.6854488 8.41151364,21.412164 L10.0583892,19.6786107 C10.3180098,19.4053259 10.738938,19.4053259 10.9985586,19.6786107 L15.6701361,24.5960607 L16.3183311,25.2635588 C16.4391987,25.3880259 16.6327184,25.3869082 16.7522813,25.2610525 C16.8516695,25.1564334 16.86722,24.9969825 16.7989329,24.8752052 L8.85890168,16.5186052 C8.59928107,16.2453204 8.59928107,15.8022381 8.85890168,15.5289532 L10.5057773,13.7954 C10.7653979,13.5221151 11.186326,13.5221151 11.4459466,13.7954 L19.3529971,22.1186713 L19.381277,22.1417835 C19.4995696,22.2189792 19.6569181,22.2035401 19.7595885,22.095466 C19.8793705,21.9693796 19.8793705,21.7649532 19.7595885,21.6388668 L11.0201771,12.4394864 C10.7605565,12.1662016 10.7605565,11.7231193 11.0201771,11.4498345 L12.6670527,9.71628122 C12.9266733,9.44299637 13.3476015,9.44299637 13.6072221,9.71628122 L22.347931,18.9170274 Z" id="Path" fill="url(#linearGradient-3)"></path>
        </g>
    </g>
</svg>