<?xml version="1.0" encoding="UTF-8"?>
<svg width="42px" height="40px" viewBox="0 0 42 40" version="1.1" xmlns="http://www.w3.org/2000/svg" xmlns:xlink="http://www.w3.org/1999/xlink">
    <title>Laugh</title>
    <defs>
        <linearGradient x1="50%" y1="43.108724%" x2="50%" y2="99.6271307%" id="linearGradient-1">
            <stop stop-color="#FFD62F" offset="0%"></stop>
            <stop stop-color="#FB9D0B" offset="100%"></stop>
        </linearGradient>
    </defs>
    <g id="Symbols" stroke="none" stroke-width="1" fill="none" fill-rule="evenodd">
        <g id="Reactions/-button" transform="translate(-50.000000, 0.000000)">
            <g id="Laugh" transform="translate(50.000000, 0.000000)">
                <g id="Background/Gradient-">
                    <path d="M41.9967281,20.3482093 C41.8317061,38.6861031 35.5919902,40 21.0549704,40 C6.10303817,40 -0.235219408,38.3093203 0.00665563001,19.5026273 C0.239572334,1.39235296 6.35292857,0 20.7720756,0 C35.7042051,0 42.1669364,1.44029833 41.9967281,20.3482093 Z" id="Fill-203" fill="#FFD62F"></path>
                    <path d="M41.9967281,20.3482093 C41.8317061,38.6861031 35.5919902,40 21.0549704,40 C6.10303817,40 -0.235219408,38.3093203 0.00665563001,19.5026273 C0.239572334,1.39235296 6.35292857,0 20.7720756,0 C35.7042051,0 42.1669364,1.44029833 41.9967281,20.3482093 Z" id="Fill-203" fill="url(#linearGradient-1)" opacity="0.6"></path>
                </g>
                <g id="Face/Eye-close" transform="translate(10.909091, 8.081340)" fill="#182242" fill-rule="nonzero">
                    <path d="M-0.349029397,-0.302461639 C0.0345126557,-0.981300007 0.867642888,-1.24653517 1.56565503,-0.935643792 L1.69480614,-0.870560497 L6.71872958,1.96794422 C7.66710091,2.50377175 7.73594595,3.82378392 6.89409777,4.46429278 L6.77365257,4.54728564 L2.11068429,7.45040772 C1.40741912,7.88825428 0.482365296,7.67308998 0.0445187354,6.96982482 C-0.367572145,6.3079282 -0.201217427,5.44956826 0.40609637,4.98583952 L0.52510163,4.90365927 L3.042,3.336 L0.219069461,1.74137389 C-0.459768907,1.35783184 -0.725004069,0.524701609 -0.414112691,-0.173310529 L-0.349029397,-0.302461639 Z" id="Path-2"></path>
                </g>
                <g id="Face/Eye-close-Copy" transform="translate(29.918660, 11.581340) scale(-1, 1) translate(-29.918660, -11.581340) translate(26.918660, 8.081340)" fill="#182242" fill-rule="nonzero">
                    <path d="M-0.349029397,-0.302461639 C0.0345126557,-0.981300007 0.867642888,-1.24653517 1.56565503,-0.935643792 L1.69480614,-0.870560497 L6.71872958,1.96794422 C7.66710091,2.50377175 7.73594595,3.82378392 6.89409777,4.46429278 L6.77365257,4.54728564 L2.11068429,7.45040772 C1.40741912,7.88825428 0.482365296,7.67308998 0.0445187354,6.96982482 C-0.367572145,6.3079282 -0.201217427,5.44956826 0.40609637,4.98583952 L0.52510163,4.90365927 L3.042,3.336 L0.219069461,1.74137389 C-0.459768907,1.35783184 -0.725004069,0.524701609 -0.414112691,-0.173310529 L-0.349029397,-0.302461639 Z" id="Path-2"></path>
                </g>
                <g id="Face/Mouth" transform="translate(7.559809, 20.000000)">
                    <path d="M2.31770988,0 C2.35625223,0 2.38911357,0 2.41629388,0 C5.66411529,0 9.67939247,0 14.4621254,0 C18.0024599,0 21.9633172,0 26.3446975,0 C26.3768173,0 26.4166479,0 26.4641892,0 C27.607703,1.70432595e-05 28.534704,0.927018092 28.534704,2.07053184 C28.534704,2.18650811 28.5249597,2.30227934 28.505574,2.41662394 C28.505574,2.41662394 28.505574,2.41662394 28.505574,2.41662394 C27.356643,9.19346221 21.4580169,14.354067 14.354067,14.354067 C7.3779398,14.354067 1.56415143,9.37750296 0.269171346,2.7808444 C0.249266749,2.67944992 0.22984808,2.56286153 0.210915338,2.43107923 C0.210915338,2.43107923 0.210915338,2.43107923 0.210915338,2.43107923 C0.0437517577,1.26752873 0.851482945,0.188771833 2.01503344,0.0216082528 C2.11528244,0.00720579924 2.21643158,-2.29774211e-05 2.31770988,0 Z" id="Rectangle" fill="#182242"></path>
                    <path d="M14.9521531,7.17703349 C18.5091745,7.17703349 21.8161095,8.24778087 24.5682208,10.0845384 C21.9655432,12.7208107 18.3505388,14.354067 14.354067,14.354067 C10.6095209,14.354067 7.19986493,12.920232 4.64418238,10.5716453 C7.52575414,8.43827629 11.0916641,7.17703349 14.9521531,7.17703349 Z" id="Combined-Shape" fill="#E34041"></path>
                    <path d="M7.17703349,0 L21.5311005,0 L21.5311005,4.36802233 C21.5311005,4.59814097 21.3445525,4.784689 21.1144338,4.784689 L7.59370016,4.784689 C7.36358151,4.784689 7.17703349,4.59814097 7.17703349,4.36802233 L7.17703349,0 L7.17703349,0 Z" id="Rectangle" fill="#FFFFFF"></path>
                </g>
            </g>
        </g>
    </g>
</svg>