<?xml version="1.0" encoding="UTF-8"?>
<svg width="42px" height="40px" viewBox="0 0 42 40" version="1.1" xmlns="http://www.w3.org/2000/svg" xmlns:xlink="http://www.w3.org/1999/xlink">
    <title>love</title>
    <defs>
        <linearGradient x1="50%" y1="0%" x2="50%" y2="100%" id="linearGradient-1">
            <stop stop-color="#F37476" offset="0%"></stop>
            <stop stop-color="#E34041" offset="100%"></stop>
        </linearGradient>
    </defs>
    <g id="Symbols" stroke="none" stroke-width="1" fill="none" fill-rule="evenodd">
        <g id="Reactions/-button" transform="translate(-150.000000, 0.000000)" fill-rule="nonzero">
            <g id="love" transform="translate(150.000000, 0.000000)">
                <path d="M41.9967281,20.3482093 C41.8317061,38.6861031 35.5919902,40 21.0549704,40 C6.10303817,40 -0.235219408,38.3093203 0.00665563001,19.5026273 C0.239572334,1.39235296 6.35292857,0 20.7720756,0 C35.7042051,0 42.1669364,1.44029833 41.9967281,20.3482093 Z" id="heart" fill="url(#linearGradient-1)"></path>
                <path d="M14.8181818,10 C11.9700729,10 8,12.5147332 8,17.9238329 C8,23.7004898 15.6203208,29.402757 21.6363636,32.9665072 C27.6524068,29.402757 35.2727273,23.7004898 35.2727273,17.9238329 C35.2727273,12.5147332 31.3026543,10 28.4545455,10 C24.9059982,10 22.8395722,11.7444304 21.6363636,13.7242985 C20.4331551,11.7444304 18.366729,10 14.8181818,10 Z" id="heart" fill="#FFFFFF"></path>
            </g>
        </g>
    </g>
</svg>